<mxfile host="app.diagrams.net" modified="2024-05-20T12:59:09.022Z" agent="Mozilla/5.0 (X11; Ubuntu; Linux x86_64; rv:125.0) Gecko/20100101 Firefox/125.0" etag="xxXcDJ_R592w6nI_wa4O" version="24.4.4" type="device">
  <diagram name="Page-1" id="N-wSMDdOLOSTBHaaTA4y">
    <mxGraphModel dx="2612" dy="2225" grid="1" gridSize="10" guides="1" tooltips="1" connect="1" arrows="1" fold="1" page="1" pageScale="1" pageWidth="850" pageHeight="1100" math="0" shadow="0">
      <root>
        <mxCell id="0" />
        <mxCell id="1" parent="0" />
        <mxCell id="Vwv_NTBLOGHmw_-FmrzE-19" value="" style="rounded=0;whiteSpace=wrap;html=1;" parent="1" vertex="1">
          <mxGeometry x="-810" y="-80" width="1440" height="820" as="geometry" />
        </mxCell>
        <mxCell id="Vwv_NTBLOGHmw_-FmrzE-20" value="office building" style="sketch=0;outlineConnect=0;gradientColor=none;fontColor=#545B64;strokeColor=none;fillColor=#879196;dashed=0;verticalLabelPosition=bottom;verticalAlign=top;align=center;html=1;fontSize=12;fontStyle=0;aspect=fixed;shape=mxgraph.aws4.illustration_office_building;pointerEvents=1" parent="1" vertex="1">
          <mxGeometry x="171" y="312.5" width="100" height="71" as="geometry" />
        </mxCell>
        <mxCell id="Vwv_NTBLOGHmw_-FmrzE-21" value="Come to our VSC office for the in person analysis" style="text;html=1;align=center;verticalAlign=top;whiteSpace=wrap;rounded=0;fontSize=14;fontFamily=Comic Sans MS;fontColor=#CC00CC;" parent="1" vertex="1">
          <mxGeometry x="150" y="410.5" width="130" height="40" as="geometry" />
        </mxCell>
        <mxCell id="Vwv_NTBLOGHmw_-FmrzE-22" value="" style="shape=actor;whiteSpace=wrap;html=1;" parent="1" vertex="1">
          <mxGeometry x="100" y="478.25" width="40" height="60" as="geometry" />
        </mxCell>
        <mxCell id="Vwv_NTBLOGHmw_-FmrzE-23" value="We know this is painful, but for a successful evaluation, it is important to remove the makeup before arriving or at the site" style="text;html=1;align=center;verticalAlign=top;whiteSpace=wrap;rounded=0;fontSize=14;fontFamily=Comic Sans MS;fontColor=#CC00CC;" parent="1" vertex="1">
          <mxGeometry x="30" y="551.75" width="200" height="90" as="geometry" />
        </mxCell>
        <mxCell id="Vwv_NTBLOGHmw_-FmrzE-24" value="" style="shape=image;html=1;verticalAlign=top;verticalLabelPosition=bottom;labelBackgroundColor=#ffffff;imageAspect=0;aspect=fixed;image=https://cdn4.iconfinder.com/data/icons/evil-icons-user-interface/64/camera-128.png" parent="1" vertex="1">
          <mxGeometry x="-245" y="449.75" width="78" height="78" as="geometry" />
        </mxCell>
        <mxCell id="Vwv_NTBLOGHmw_-FmrzE-25" value="The actual session will begin for identifying your best colors and providing you with tailored recommendations" style="text;html=1;align=center;verticalAlign=top;whiteSpace=wrap;rounded=0;fontSize=14;fontFamily=Comic Sans MS;fontColor=#CC00CC;" parent="1" vertex="1">
          <mxGeometry x="-120" y="576.75" width="130" height="80" as="geometry" />
        </mxCell>
        <mxCell id="Vwv_NTBLOGHmw_-FmrzE-26" value="" style="shape=image;html=1;verticalAlign=top;verticalLabelPosition=bottom;labelBackgroundColor=#ffffff;imageAspect=0;aspect=fixed;image=https://cdn4.iconfinder.com/data/icons/evil-icons-user-interface/64/camera-128.png" parent="1" vertex="1">
          <mxGeometry x="20" y="192" width="78" height="78" as="geometry" />
        </mxCell>
        <mxCell id="Vwv_NTBLOGHmw_-FmrzE-27" value="Send us a picture based on the provided guidelines" style="text;html=1;align=center;verticalAlign=top;whiteSpace=wrap;rounded=0;fontSize=14;fontFamily=Comic Sans MS;fontColor=#CC00CC;" parent="1" vertex="1">
          <mxGeometry x="15" y="280" width="130" height="80" as="geometry" />
        </mxCell>
        <mxCell id="Vwv_NTBLOGHmw_-FmrzE-28" value="" style="outlineConnect=0;dashed=0;verticalLabelPosition=bottom;verticalAlign=top;align=center;html=1;shape=mxgraph.aws3.mechanical_turk;fillColor=#ACACAC;gradientColor=none;" parent="1" vertex="1">
          <mxGeometry x="-412" y="347.5" width="67.5" height="81" as="geometry" />
        </mxCell>
        <mxCell id="Vwv_NTBLOGHmw_-FmrzE-29" value="" style="shape=image;html=1;verticalAlign=top;verticalLabelPosition=bottom;labelBackgroundColor=#ffffff;imageAspect=0;aspect=fixed;image=https://cdn3.iconfinder.com/data/icons/summertime-6/512/glasses-128.png" parent="1" vertex="1">
          <mxGeometry x="-120" y="478.25" width="128" height="128" as="geometry" />
        </mxCell>
        <mxCell id="Vwv_NTBLOGHmw_-FmrzE-30" value="Pictures with the recommended colors will be provided to you" style="text;html=1;align=center;verticalAlign=top;whiteSpace=wrap;rounded=0;fontSize=14;fontFamily=Comic Sans MS;fontColor=#CC00CC;" parent="1" vertex="1">
          <mxGeometry x="-271" y="525" width="130" height="85" as="geometry" />
        </mxCell>
        <mxCell id="Vwv_NTBLOGHmw_-FmrzE-31" value="A color swatch and a document full of tailored recommendation will be given to you as a gift" style="text;html=1;align=center;verticalAlign=top;whiteSpace=wrap;rounded=0;fontSize=14;fontFamily=Comic Sans MS;fontColor=#CC00CC;" parent="1" vertex="1">
          <mxGeometry x="-460" y="450.5" width="180" height="85" as="geometry" />
        </mxCell>
        <mxCell id="Vwv_NTBLOGHmw_-FmrzE-32" value="" style="sketch=0;pointerEvents=1;shadow=0;dashed=0;html=1;strokeColor=none;labelPosition=center;verticalLabelPosition=bottom;verticalAlign=top;align=center;fillColor=#505050;shape=mxgraph.mscae.oms.log_search" parent="1" vertex="1">
          <mxGeometry x="-358" y="130" width="50" height="50" as="geometry" />
        </mxCell>
        <mxCell id="Vwv_NTBLOGHmw_-FmrzE-34" value="" style="sketch=0;pointerEvents=1;shadow=0;dashed=0;html=1;strokeColor=none;fillColor=#505050;labelPosition=center;verticalLabelPosition=bottom;verticalAlign=top;outlineConnect=0;align=center;shape=mxgraph.office.concepts.document;" parent="1" vertex="1">
          <mxGeometry x="-100" y="173" width="40" height="47" as="geometry" />
        </mxCell>
        <mxCell id="Vwv_NTBLOGHmw_-FmrzE-36" value="&lt;div&gt;Choose a&amp;nbsp;&lt;/div&gt;&lt;div&gt;service&lt;/div&gt;" style="text;html=1;align=center;verticalAlign=top;whiteSpace=wrap;rounded=0;fontSize=14;fontFamily=Comic Sans MS;fontColor=#CC00CC;" parent="1" vertex="1">
          <mxGeometry x="-398" y="190" width="130" height="80" as="geometry" />
        </mxCell>
        <mxCell id="Vwv_NTBLOGHmw_-FmrzE-37" value="&lt;div&gt;Fill our questioner&lt;/div&gt;" style="text;html=1;align=center;verticalAlign=top;whiteSpace=wrap;rounded=0;fontSize=14;fontFamily=Comic Sans MS;fontColor=#CC00CC;" parent="1" vertex="1">
          <mxGeometry x="-130" y="243.5" width="145" height="102" as="geometry" />
        </mxCell>
        <mxCell id="Vwv_NTBLOGHmw_-FmrzE-38" value="Bank" style="sketch=0;outlineConnect=0;fontColor=#232F3E;gradientColor=none;strokeColor=#232F3E;fillColor=#ffffff;dashed=0;verticalLabelPosition=bottom;verticalAlign=top;align=center;html=1;fontSize=12;fontStyle=0;aspect=fixed;shape=mxgraph.aws4.resourceIcon;resIcon=mxgraph.aws4.bank;" parent="1" vertex="1">
          <mxGeometry x="-240" y="130" width="60" height="60" as="geometry" />
        </mxCell>
        <mxCell id="Vwv_NTBLOGHmw_-FmrzE-39" value="Transfer Payment" style="text;html=1;align=center;verticalAlign=top;whiteSpace=wrap;rounded=0;fontSize=14;fontFamily=Comic Sans MS;fontColor=#CC00CC;" parent="1" vertex="1">
          <mxGeometry x="-260" y="220" width="130" height="80" as="geometry" />
        </mxCell>
        <mxCell id="VJHsliQ4wrq-1c2ZO1ZM-2" value="" style="html=1;shadow=0;dashed=0;align=center;verticalAlign=middle;shape=mxgraph.arrows2.jumpInArrow;dy=15;dx=38;arrowHead=55;rotation=25;" vertex="1" parent="1">
          <mxGeometry x="-344.5" y="33" width="234.5" height="140" as="geometry" />
        </mxCell>
      </root>
    </mxGraphModel>
  </diagram>
</mxfile>
